<svg xmlns="http://www.w3.org/2000/svg" width="400" viewBox="0 0 708.7 290.1">
    <style type="text/css">
        .st0{fill-rule:evenodd;clip-rule:evenodd;fill:#ED4B6A;}
        .st1{fill:#414042;}
        .st2{fill-rule:evenodd;clip-rule:evenodd;fill:#42B771;}
        .st3{fill-rule:evenodd;clip-rule:evenodd;fill:#60B9CE;}
    </style>
    <g>
        <path class="st0" d="M176.7,132.9l-15.1-26.1c0,0-0.8-1.4-2.6-1.4c-1.8,0-2.6,1.4-2.6,1.4l-15.1,26.1c0,0-0.7,1.3-0.4,3.7
            c0.4,3,2.6,4.5,2.6,4.5l9.6,6c0,0,2.3,1.6,5.8,1.6c0,0,0.1,0,0.1,0c0,0,0.1,0,0.1,0c3.5,0,5.8-1.6,5.8-1.6l9.6-6
            c0,0,2.2-1.5,2.6-4.5C177.5,134.2,176.7,132.9,176.7,132.9z"/>
        <g>
            <path class="st1" d="M301.2,118.4c-2.9-2.3-6.3-4.1-10.2-5.3c-4-1.2-8.2-1.8-12.6-1.8c-4.2,0-8.3,0.6-12.4,1.8
	            c-4.1,1.2-7.7,2.9-10.9,5.2c-3.2,2.3-5.9,5.2-7.9,8.6c-2.1,3.5-3.2,7.5-3.5,12.2l-1.1,21.8c-0.2,4.7,0.5,8.7,2.1,12.2
	            c1.6,3.5,4,6.3,6.9,8.6c3,2.3,6.4,4,10.3,5.1c3.9,1.1,8,1.7,12.3,1.7c4.2,0,8.3-0.6,12.3-1.7c4-1.1,7.6-2.8,10.9-5.1
	            c3.2-2.3,5.9-5.2,7.9-8.6c2.1-3.5,3.2-7.5,3.5-12.2l1.1-21.5c0.2-4.7-0.4-8.8-1.9-12.3C306.3,123.7,304.1,120.7,301.2,118.4z
	             M290.3,142.4l-0.8,15c-0.1,2.4-0.6,4.5-1.5,6.2c-0.9,1.7-2,3.1-3.4,4.1c-1.4,1.1-2.9,1.8-4.5,2.3c-1.6,0.5-3.2,0.7-4.8,0.7
	            c-1.8,0-3.5-0.2-5.1-0.7c-1.6-0.5-3-1.2-4.3-2.3c-1.3-1.1-2.2-2.4-2.9-4.1c-0.7-1.7-0.9-3.7-0.8-6.2l0.8-15
	            c0.1-2.4,0.6-4.5,1.5-6.1c0.9-1.6,2-3,3.4-4.1c1.4-1.1,2.9-1.8,4.6-2.3c1.7-0.5,3.4-0.7,5-0.7c1.6,0,3.2,0.2,4.8,0.7
	            c1.5,0.5,3,1.2,4.2,2.3c1.3,1.1,2.3,2.4,3,4.1C290.1,137.9,290.4,139.9,290.3,142.4z"/>
            <path class="st1" d="M535.9,81.1c-2.9,0-5.5,1.1-7.8,3.2c-2.2,2.1-3.4,4.7-3.6,7.8c-0.2,3,0.8,5.6,2.8,7.7c2,2.1,4.5,3.1,7.5,3.1
	            s5.5-1,7.8-3.1c2.2-2.1,3.4-4.6,3.6-7.7c0.2-3-0.8-5.6-2.8-7.8C541.3,82.1,538.8,81.1,535.9,81.1z"/>
            <path class="st1" d="M223.7,169.8c-0.7-0.6-1.2-1.3-1.4-2.4c-0.2-1-0.3-2.4-0.2-4.1l4.2-81.1c0-0.5-0.1-1.5-0.9-2.4
	            c-0.9-1-2.5-1.2-3.2-1.3h-15l-4.6,88.5c-0.2,3.3-0.1,6.2,0.2,8.8c0.3,2.6,1.1,4.8,2.5,6.7c1.4,1.9,3.4,3.3,6,4.3
	            c2.6,1,6.2,1.5,10.8,1.5c1.4,0,2.9-0.1,4.4-0.2c1.5-0.1,3.2-0.3,4.9-0.6l0.6-16.5c-2.1,0-3.9-0.1-5.2-0.3
	            C225.5,170.8,224.4,170.4,223.7,169.8z"/>
            <path class="st1" d="M487.3,111.4c-2.6,0-5.8,0.5-9.4,1.4c-3.6,0.9-8,2.8-13,5.6l0.9-16l1-19.7c0,0,0.2-1.5-0.9-2.7
	            c-1-1.1-3-1.3-3.5-1.3h-14.7l-5.5,105.5c0,0.5,0.2,1.5,0.9,2.3c1.2,1.3,3.6,1.3,3.6,1.3h13.1l1.8-6.1c4,2.3,7.8,4,11.3,5.1
	            c3.5,1.1,6.5,1.6,9.2,1.6c7.9,0,14.3-2.3,19.1-6.8c4.8-4.5,7.5-11.4,8-20.6l1.2-22.2c0.4-8.2-1.2-14.8-4.7-19.8
	            C502,113.9,495.9,111.4,487.3,111.4z M490.8,141.3l-0.9,17.7c-0.2,4.1-1.3,7-3.2,8.8c-1.9,1.8-4.2,2.7-6.8,2.7
	            c-1.2,0-2.6-0.2-4.2-0.5c-1.6-0.4-3.1-0.8-4.7-1.3c-1.6-0.5-3.2-1.1-4.7-1.8c-1.5-0.7-2.8-1.4-3.8-2.1l1.5-27.9
	            c3.2-1.9,6.5-3.6,9.6-5c3.2-1.4,6-2.1,8.4-2.1c2.6,0,4.8,0.8,6.6,2.5C490.3,134,491.1,137,490.8,141.3z"/>
            <path class="st1" d="M540.1,112.5h-14.7l-1.7,33h0l-2,38.2c0,0,0,0,0,0.1l0,0.1c0,0.4,0,1.6,0.9,2.5c0.9,1,2.7,1.2,3.3,1.3h14.9
	            l3.7-71.2c0,0,0.2-1.5-0.9-2.7C542.6,112.5,540.1,112.5,540.1,112.5z"/>
            <path class="st1" d="M623.1,113.8c-1.2-1.3-3.6-1.3-3.6-1.3h-13.1l-1.8,6.1c-4.1-2.5-7.9-4.4-11.4-5.5c-3.4-1.1-6.5-1.7-9.1-1.7
	            c-7.9,0-14.3,2.3-19.3,6.9c-4.9,4.6-7.6,11.5-8.1,20.7l-1.2,22.1c-0.4,8.2,1.3,14.8,5.1,19.8c3.8,5,9.9,7.5,18.3,7.5
	            c2.6,0,5.8-0.4,9.4-1.3c3.7-0.9,7.9-2.6,12.8-5.3l-1.7,32.6c0,0.5,0.2,1.4,0.9,2.3c1.2,1.3,3.6,1.3,3.6,1.3h14.7l0,0l3.3-63.2h0
	            l2-38.2C624,116.5,624.2,115,623.1,113.8z M602.2,163.4c-3.4,2-6.6,3.6-9.7,4.8c-3.1,1.2-5.8,1.8-8.2,1.8c-2.7,0-5-0.8-6.7-2.5
	            c-1.7-1.7-2.5-4.6-2.3-8.9l0.9-17.7c0.2-4.1,1.3-7,3.3-8.8c2-1.8,4.3-2.7,6.9-2.7c1.1,0,2.4,0.2,3.9,0.5c1.5,0.4,3.1,0.8,4.7,1.4
	            c1.6,0.6,3.1,1.2,4.6,1.9c1.5,0.7,2.8,1.4,4,2.1L602.2,163.4z"/>
            <path class="st1" d="M408.3,111.4c-1.3,0-2.7,0.1-4.2,0.3c-1.5,0.2-3.2,0.7-5.2,1.4c-2,0.7-4.2,1.8-6.7,3.1
	            c-2.5,1.4-5.4,3.2-8.7,5.6c-1.6-3.2-3.9-5.8-6.9-7.6c-3.1-1.8-6.9-2.7-11.6-2.7c-1.3,0-2.6,0.1-4,0.2c-1.3,0.2-2.8,0.5-4.5,1.1
	            c-1.7,0.6-3.5,1.4-5.6,2.5c-2.1,1.1-4.4,2.5-7.1,4.2l-1.2-6.9h-17.8l-3.8,71.6c0,0.5,0.1,1.5,0.9,2.4c1.1,1.2,3.2,1.3,3.5,1.3
	            h14.7l2.7-51.2c3.7-2.4,6.7-4.1,9-5c2.3-0.9,4.7-1.4,7-1.4c2.2,0,4.2,0.8,5.8,2.3c1.6,1.5,2.4,4.4,2.1,8.5l-0.2,4.6h0l-2,38.2
	            c0,0-0.2,1.5,0.9,2.7c0.9,1.1,2.7,1.3,3.4,1.3h14.9l2.3-43.6c0.1-1.2,0.1-2.4,0.2-3.6c0.1-1.2,0.1-2.4,0-3.6
	            c3.6-2.5,6.6-4.3,8.9-5.3c2.4-1,4.7-1.5,6.9-1.5c2.7,0,4.8,0.8,6.4,2.4c1.6,1.6,2.3,4.5,2.1,8.5l-2.3,43c0,0.5,0.1,1.5,0.9,2.4
	            c0.9,1,2.6,1.2,3.3,1.3h15l2.6-48.8c0.4-8.2-1-14.9-4.4-20C422.3,113.9,416.5,111.4,408.3,111.4z"/>
        </g>
        <g>
            <path class="st1" d="M172.9,97c0,0-0.2,6.5,0.3,8.5c0.5,2,3.6,7,3.6,7l12.4,22l2.5-47.3c0.3-4.7-3.4-8.5-8.1-8.6L173,78.6
	            L172.9,97z"/>
            <path class="st1" d="M101.3,186.5c-1.4-2.5,0.6-5.5,0.6-5.5l38.7-66.8c0,0,3.4-5.5,4-7.7c0.6-2.3,0.4-9.5,0.4-9.5l-0.1-18.4h-40.8
	            l-5.9,101.5c-0.2,3.1,1.4,5.9,3.8,7.4C101.8,187.2,101.5,186.9,101.3,186.5z"/>
        </g>
        <path class="st1" d="M125.7,76.2"/>
        <path class="st2" d="M131.7,149.8l-15,26.1c0,0-0.8,1.4,0.1,3c0.9,1.5,2.5,1.5,2.5,1.5l30.1,0c0,0,1.5,0,3.4-1.5
            c2.4-1.8,2.6-4.5,2.6-4.5l0.4-11.3c0,0,0.2-2.8-1.5-5.8c0,0,0,0,0-0.1c0,0,0,0,0-0.1c-1.8-3-4.3-4.2-4.3-4.2l-10-5.4
            c0,0-2.4-1.2-5.2,0C132.5,148.5,131.7,149.8,131.7,149.8z"/>
        <path class="st3" d="M188.2,153.1l-1.9-3.3c0,0-0.7-1.3-3-2.2c-2.8-1.2-5.2,0-5.2,0l-10,5.4c0,0-2.5,1.2-4.3,4.2c0,0,0,0,0,0.1
            c0,0,0,0,0,0.1c-1.7,3-1.5,5.8-1.5,5.8l0.4,11.3c0,0,0.2,2.7,2.6,4.5c1.9,1.5,3.4,1.5,3.4,1.5h18.2L188.2,153.1z"/>
    </g>
</svg>