<?xml version="1.0" encoding="utf-8"?>
<!-- Generator: Adobe Illustrator 22.0.1, SVG Export Plug-In . SVG Version: 6.00 Build 0)  -->
<svg version="1.1" id="Layer_1" xmlns="http://www.w3.org/2000/svg" xmlns:xlink="http://www.w3.org/1999/xlink" x="0px" y="0px"
	 viewBox="0 0 127.6 127.6" style="enable-background:new 0 0 127.6 127.6;" xml:space="preserve">
<style type="text/css">
	.st0{fill:#2BB673;}
	.st1{fill:#009444;}
	.st2{fill:#FFFFFF;}
</style>
<g>
	<path class="st0" d="M63.8,1.9v24.2c20.8,0,37.6,16.8,37.6,37.6c0,20.8-16.8,37.6-37.6,37.6v24.2c34.2,0,61.8-27.7,61.8-61.8
		S97.9,1.9,63.8,1.9z"/>
	<path class="st1" d="M26.2,63.8C26.2,43,43,26.2,63.8,26.2V1.9C29.6,1.9,1.9,29.6,1.9,63.8s27.7,61.8,61.8,61.8v-24.2
		C43,101.4,26.2,84.6,26.2,63.8z"/>
	<path class="st1" d="M63.8,26.2v21c1.1-2.4,2.9-4.4,5.3-6c2.4-1.6,5.2-2.4,8.3-2.4s6.1,0.7,9,2.1V55l-8.9,0.7v-4.4
		c0-1.3-0.3-2.1-1-2.4c-0.7-0.3-1.6-0.5-2.6-0.5c-2.5,0-4.6,0.9-6.2,2.7c-1.6,1.8-2.4,4.1-2.4,6.9v22.1l8.3,0.4V88h-9.8v13.4
		c20.8,0,37.6-16.8,37.6-37.6C101.4,43,84.6,26.2,63.8,26.2z"/>
	<path class="st0" d="M48.1,88v-7.2l3.1-0.3c1-0.1,1.6-0.4,2.1-0.8c0.4-0.4,0.7-1.2,0.7-2.3V51c0-1-0.2-1.7-0.5-2.1
		c-0.3-0.4-1-0.6-1.9-0.7l-4-0.3v-7.7h16.1v7.1c0,0,0-0.1,0.1-0.1v-21C43,26.2,26.2,43,26.2,63.8c0,20.8,16.8,37.6,37.6,37.6V88
		H48.1z"/>
	<path class="st2" d="M86.4,55V40.8c-2.9-1.4-5.9-2.1-9-2.1s-5.9,0.8-8.3,2.4c-2.4,1.6-4.1,3.6-5.3,6c0,0,0,0.1-0.1,0.1v-7.1H47.6
		v7.7l4,0.3c0.9,0.1,1.5,0.3,1.9,0.7C53.8,49.3,54,50,54,51v26.4c0,1.1-0.2,1.9-0.7,2.3c-0.4,0.4-1.1,0.7-2.1,0.8l-3.1,0.3V88h15.7
		h9.8v-7.5l-8.3-0.4V58c0-2.8,0.8-5.1,2.4-6.9c1.6-1.8,3.7-2.7,6.2-2.7c1,0,1.9,0.2,2.6,0.5c0.6,0.3,1,1.1,1,2.4v4.4L86.4,55z"/>
</g>
</svg>
